<svg xmlns="http://www.w3.org/2000/svg" viewBox="268.6656671664168 178.79999999999998 257.87106446776613 241.20000000000002" style="max-height: 500px" width="257.87106446776613" height="241.20000000000002">

 <g>
  <title>Layer 1</title>
  <g>
   <g id="svg_1">
    <title fill="#bcbaba">Layer 1</title>
    <g id="svg_2">
     <path fill="#bcbaba" d="m491.83366,279.74006l-0.27,-0.69l-26.14,-68.22a6.81,6.81 0 0 0 -2.69,-3.24a7,7 0 0 0 -8,0.43a7,7 0 0 0 -2.32,3.52l-17.65,54l-71.47,0l-17.65,-54a6.86,6.86 0 0 0 -2.32,-3.53a7,7 0 0 0 -8,-0.43a6.87,6.87 0 0 0 -2.69,3.24l-26.19,68.19l-0.26,0.69a48.54,48.54 0 0 0 16.1,56.1l0.09,0.07l0.24,0.17l39.82,29.82l19.7,14.91l12,9.06a8.07,8.07 0 0 0 9.76,0l12,-9.06l19.7,-14.91l40.06,-30l0.1,-0.08a48.56,48.56 0 0 0 16.08,-56.04z" class="cls-1"/>
    </g>
   </g>
  </g>
 </g>
</svg>