<svg width="800" height="600" xmlns="http://www.w3.org/2000/svg">
 <g id="Layer_1">
  <title>Layer 1</title>

  <g id="svg_1">
   <path fill="#000000" d="m492.83369,280.74003l-0.27,-0.69l-26.14,-68.22a6.81,6.81 0 0 0 -2.69,-3.24a7,7 0 0 0 -8,0.43a7,7 0 0 0 -2.32,3.52l-17.65,54l-71.47,0l-17.65,-54a6.86,6.86 0 0 0 -2.32,-3.53a7,7 0 0 0 -8,-0.43a6.87,6.87 0 0 0 -2.69,3.24l-26.19,68.19l-0.26,0.69a48.54,48.54 0 0 0 16.1,56.1l0.09,0.07l0.24,0.17l39.82,29.82l19.7,14.91l12,9.06a8.07,8.07 0 0 0 9.76,0l12,-9.06l19.7,-14.91l40.06,-30l0.1,-0.08a48.56,48.56 0 0 0 16.08,-56.04z" class="cls-1"/>
  </g>
 </g>

</svg>